<svg xmlns="http://www.w3.org/2000/svg" viewBox="0 0 256 104" width="256px" height="104px">
  <g fill="none">
    <path d="M92.08 23.11h16.91v60.66h-16.91V64.36h-22.54v19.41H52.63V23.11h16.91v19.42h22.54V23.11zm74.91 44.48c0-8.95-12.27-11.23-17.35-12.31-2.44-.53-4.95-1.09-6.72-2.02-1.86-.99-2.51-1.96-2.51-3.52 0-4.25 4.98-5.11 6.67-5.11 5.66 0 7.8 3.83 8.12 8.14h14.99c-.25-5.98-2.32-10.47-6.07-13.44-2.78-2.33-7.07-4.03-13.14-4.42V23.11h-13.82v7.52c-10.62 1.81-16.29 8.94-16.29 17.08 0 8.37 5.67 13.82 16.14 16.05 7.23 1.5 9.3 2.19 11.13 2.92 2.42 1.03 3.41 2.58 3.41 4.05 0 2.65-1.99 5.49-7.3 5.49-7.64 0-8.51-5.62-8.7-7.99h-15.37c.25 6.28 2.88 10.75 6.9 13.71 3.89 2.8 9.37 4.04 15.72 4.04 12.59 0 22.57-6.46 22.57-18.46zm55.22-44.48h-17.82l-17.02 23.28h-.21V23.11h-15.86v60.66h15.86V61.68h.21l16.78 22.09h18.08l-23.8-30.12 23.78-30.54zM35.26 49.25l5.68-5.46c3.75-3.64 4.54-4.91 4.54-7.26 0-2.37-1.89-4.21-4.84-4.21-2.44 0-4.38.88-6.03 2.96-1.59 2.02-2.36 5.1-2.47 8.7H14.52c.18-9.6 3.57-18.05 9.23-23.34 5.56-5.24 13.04-7.87 21.12-7.87 7.64 0 14.47 2.17 19.34 6.38 5.12 4.45 7.96 10.68 7.96 18.1v30.57c0 7.65 0 12.29 2.62 15.64H54.55c-1.78-1.57-2.47-4.21-2.47-8.5-3.64 4.31-8.94 9.4-17.01 9.4-6.69 0-13.17-3.15-16.94-8.32-2.56-3.45-3.9-8.11-3.9-13.35 0-10.19 4.86-16.2 11.03-21.28zm16.37 20.02c5.05 0 8.22-2.67 10.05-4.84 1.89-2.25 2.88-4.71 2.88-9.49v-2.36H48.22c-3.97 0-7.22.53-9.33 2.62-1.7 1.7-2.65 4.21-2.65 6.71 0 2.44.88 4.79 2.47 6.5 1.81 1.89 4.16 3.36 8.92 3.36z"/>
    <path fill="#FF9900" d="M77.47 102.64c-12.02-.64-20.35-5.08-27.26-9.97-1.73-1.25-3.48-2.55-5.44-3.55-2.1-1.08-4.26-1.86-6.76-1.64-.49.03-.92-.37-.95-.87-.03-.49.37-.92.87-.95 2.86-.24 5.33.63 7.56 1.74 2.05 1.05 3.84 2.4 5.63 3.66 6.75 4.86 14.33 9.12 25.99 9.7 9.71.52 21.64-2.04 29.12-8.68 2.58-2.33 4.69-5.35 6.4-8.87.21-.47.77-.67 1.24-.47.47.21.67.77.47 1.24-1.82 4.08-4.16 7.44-6.91 10.02-7.88 7.12-19.5 9.84-30.46 9.29z"/>
  </g>
</svg>
