<svg xmlns="http://www.w3.org/2000/svg" viewBox="0 0 48 48" width="48px" height="48px">
  <path fill="#5382a1" d="M24.01 30.995c-4.406.727-11.37 3.715-9.777 5.4 1.326 1.36 6.963.955 11.968.198 2.088-.31 4.36-.755 6.658-1.519.424-.135 1.329-.328 1.119-.797-.143-.322-.731-.278-1.204-.22-5.645.69-11.265 2.148-15.754 1.416 0 0-.779-.108-1.194-.506-.315-.309.097-.78.097-.78.701-.373 1.463-.664 1.463-.664 1.202-.442 2.433-.777 3.665-1.117 2.635-.71 5.334-1.344 8.002-1.867-.001-.001-4.146.871-5.043.956z"/>
  <path fill="#5382a1" d="M27.554 32.555c-.2-.142-.414-.271-.626-.404-1.57-1.037-3.147-2.062-4.756-3.063-1.85-1.142-3.698-2.285-5.574-3.377-2.522-1.488-5.09-2.917-7.688-4.278-.456-.241-.931-.456-1.369-.705-.374-.217-.741-.445-1.122-.658-.162-.09-.4-.228-.404-.433-.005-.219.301-.314.503-.377 1.195-.374 2.389-.74 3.585-1.106 1.563-.481 3.129-.963 4.705-1.434.609-.184 1.22-.367 1.831-.552.312-.094.628-.182.942-.277.451-.136.849-.447 1.229-.732.268-.206.542-.409.79-.636.355-.331.644-.724.98-1.074 1.66-1.703 3.106-3.601 4.487-5.53.453-.617 1.048-1.12 1.551-1.673.576-.627 1.182-1.233 1.77-1.86.353-.374.722-.738 1.064-1.126.1-.114.351-.222.48-.056.18.24-.131.457-.261.65-1.016 1.546-2.07 3.074-3.04 4.637-.438.713-.855 1.437-1.266 2.168-.016.027-.059.081-.088.096-1.197.662-2.397 1.32-3.598 1.98-1.768 1.095-3.536 2.191-5.3 3.291-2.268 1.41-4.54 2.824-6.824 4.225-.384.236-.762.482-1.155.7-.158.087-.318.168-.478.253.239-.235.471-.479.705-.721.74-.76 1.489-1.508 2.22-2.273.147-.154.308-.297.455-.456 1.021-.517 2.043-1.034 3.064-1.551 2.022-1.024 4.045-2.045 6.065-3.075 1.117-.568 2.229-1.146 3.347-1.721.509-.263 1.02-.523 1.536-.785.004-.002.001-.002-.001-.003z"/>
  <path fill="#e76f00" d="M20.527 34.84c-1.097-.619-2.208-1.237-3.301-1.874-.219-.124-.528-.177-.732-.01-.189.158-.186.444-.187.674-.001.18.047.361.068.542.067.575.136 1.151.208 1.726.041.323.067.656.131.978.062.303.179.625.4.807.467.369 1.234-.184 1.337-.618.156-.67.253-1.355.339-2.038.05-.407.1-.813.15-1.221zM24.271 32.93c-.031-.027-.06-.059-.088-.093-.098-.12-.193-.245-.295-.361-.209-.238-.422-.469-.631-.707-.426-.484-.849-.97-1.283-1.444-.438-.48-.885-.948-1.328-1.422-.271-.292-.556-.569-.832-.857-.338-.35-.696-.687-1.049-1.027-.351-.34-.69-.692-1.038-1.037-.129-.129-.356-.097-.438.071-.056.115-.011.25.035.364.178.452.355.903.53 1.355.125.322.266.64.395.961.238.588.462 1.181.698 1.77.154.38.318.757.464 1.139.077.194.182.38.35.497.217.152.535.102.708-.111.303-.362.61-.718.915-1.078.307-.36.614-.722.922-1.084.102-.118.217-.232.33-.349.021.104.07.207.106.309z"/>
  <path fill="#5382a1" d="M24.065 32.502c-.412.104-.815.218-1.228.328-2.417.618-4.83 1.252-7.244 1.867-.308.079-.62.15-.93.228-.36.09-.764.157-1.105.03-.42-.155-.622-.644-.417-1.042.19-.367.552-.573.93-.689 1.502-.442 3.014-.85 4.527-1.259.852-.226 1.706-.443 2.556-.672.067-.018.13-.05.199-.068.28-.075.558-.154.834-.241.301-.096.609-.153.899-.288.26-.119.455-.426.33-.719-.145-.338-.564-.462-.889-.34-1.523.603-3.08 1.132-4.624 1.662-1.736.594-3.473 1.193-5.208 1.796-.601.208-1.207.423-1.804.646-.406.155-.797.409-1.046.767-.364.531-.289 1.288.199 1.71.463.4 1.11.473 1.695.502 1.233.06 2.471-.057 3.698-.167 1.285-.116 2.566-.245 3.85-.381.731-.073 1.466-.147 2.196-.228.291-.03.583-.063.875-.086.074-.006.157-.016.233.023.162.086.159.362.112.551-.176.711-.358 1.42-.535 2.131-.054.21-.107.421-.161.631-.032.127-.091.255-.19.343-.344.306-.917.118-1.282-.098-.677-.394-1.33-.828-2.002-1.236-.187-.113-.389-.198-.605-.16-.333.058-.528.421-.646.73-.31.788-.596 1.584-.882 2.381-.03.086-.073.165-.108.248-.049.119-.155.207-.269.246-.329.107-.715-.023-.895-.312-.241-.378-.153-.873.032-1.271.242-.525.475-1.057.704-1.592.183-.418.359-.84.545-1.258.233-.525.465-1.05.694-1.576.06-.137.139-.274.236-.389.109-.126.255-.187.403-.257 1.5-.696 3.008-1.368 4.515-2.045.456-.207.914-.41 1.368-.62.412-.187.84-.39 1.197-.679.243-.205.457-.46.56-.762.113-.333-.002-.713-.233-.945-.205-.205-.493-.282-.764-.282-.447-.001-.896.056-1.336.159-1.462.355-2.928.726-4.392 1.094-.3.074-.597.158-.895.237-.061.016-.119.045-.18.067z"/>
  <path fill="#e76f00" d="M24.018 22.006c-3.144-.44-6.192-.996-9.222-1.594-1.777-.328-3.562-.675-5.336-1.034-.433-.086-.878-.157-1.299-.345-.348-.161-.661-.402-.949-.686-.056-.055-.107-.118-.167-.17-.277-.263-.577-.5-.858-.753-.329-.295-.633-.62-.947-.927-.203-.198-.418-.379-.621-.574-.249-.24-.493-.491-.755-.719-.238-.206-.482-.407-.729-.604-.349-.284-.71-.553-1.08-.793-.072-.048-.166-.02-.211.05-.052.078-.056.177-.058.269-.018.662-.06 1.324-.064 1.986-.011 1.7-.027 3.401-.047 5.101-.011.95-.031 1.9-.034 2.85-.001.78.021 1.562.019 2.343-.002 1.55-.016 3.1-.027 4.65-.003.47.049.945.133 1.412.028.147.02.309.148.426.144.133.343.057.525.068.76.047 1.52.072 2.28.12.309.02.621.032.929.065.617.067 1.231.174 1.846.282.34.061.678.129 1.019.171.191.024.378-.017.563-.068.399-.109.808-.175 1.203-.34.58-.233 1.183-.401 1.764-.642.065-.027.132-.05.198-.075-.025.036-.05.073-.073.11-.354.602-.671 1.23-.998 1.847-.353.668-.701 1.336-1.045 2.005-.129.251-.271.493-.427.729-.212.324-.496.6-.798.836-.487.376-1.037.667-1.624.867-.855.282-1.75.431-2.64.506-.701.061-1.406.027-2.109-.031-1.262-.102-2.52-.272-3.774-.471-1.187-.188-2.37-.42-3.552-.642-1.003-.187-2.006-.37-3.008-.559-.651-.124-1.303-.247-1.954-.373-.248-.048-.492-.114-.736-.165-.149-.032-.306-.037-.442-.116-.206-.118-.309-.357-.286-.592.035-.391.074-.781.104-1.172.042-.549.077-1.099.113-1.648.032-.511.056-1.023.084-1.534.055-.968.107-1.937.158-2.905.041-.776.089-1.552.123-2.329.043-.973.076-1.947.103-2.921.02-.755.041-1.51.056-2.264.006-.302-.004-.606.011-.907.029-.634.074-1.269.115-1.904.008-.12.009-.244.081-.341.144-.197.425-.132.605.008.354.288.674.611.993.934.123.125.261.231.387.347.277.258.553.518.824.782.289.277.576.554.867.828.083.079.178.144.268.216.337.279.678.552 1.017.828.288.234.568.476.854.708.345.286.684.582 1.033.859.044.034.094.058.147.072 1.32.328 2.634.695 3.959 1.021 2.209.53 4.425 1.014 6.643 1.493.077.017.153.05.232.07.021.017.057.01.076.028-.009.016-.023.026-.036.038-.51.47-1.02.94-1.536 1.402-1.135 1.021-2.266 2.048-3.403 3.063-.249.222-.473.468-.685.728z"/>
</svg>
