<svg xmlns="http://www.w3.org/2000/svg" viewBox="0 0 64 64" width="64px" height="64px">
  <path fill="#306998" d="M32 0C19.194 0 16 6.2 16 6.2v11.594c0 6.101 5.026 6.076 5.026 6.076h13.946v2.97H14.95S6.52 25.016 6.52 37.734c0 12.719 7.943 14.104 7.943 14.104h7.44v-9.138s-.213-7.275 7.746-7.275h10.351s6.52.124 6.52-6.345V6.2S44.806 0 32 0zm-3.75 5c1.379 0 2.5 1.121 2.5 2.5s-1.121 2.5-2.5 2.5-2.5-1.121-2.5-2.5S26.871 5 28.25 5zm-5.97 10h13.44v3.125H22.28V15zm-.53 3.125h11.875v3.125H21.75V18.125zM21.25 21.25h10v3.125h-10V21.25z"/>
  <path fill="#FFD43B" d="M32 64c12.806 0 16-6.2 16-6.2V46.206c0-6.101-5.026-6.076-5.026-6.076H28.028v-2.97h20.021s8.429-.042 8.429-12.76c0-12.719-7.943-14.104-7.943-14.104h-7.44v9.138s.213 7.275-7.746 7.275H23.55s-6.52-.124-6.52 6.345v22.488S19.194 64 32 64zm3.75-5c-1.379 0-2.5-1.121-2.5-2.5s1.121-2.5 2.5-2.5 2.5 1.121 2.5 2.5-1.121 2.5-2.5 2.5zm5.97-10H28.28v-3.125h13.44V49zm.53-3.125H28.28v-3.125h11.875V45.875zM42.75 42.75H32v-3.125h10.75V42.75z"/>
</svg>
